<?xml version="1.0" encoding="UTF-8" standalone="no"?>
<svg
   id="tuw-logo"
   version="1.1"
   x="0px"
   y="0px"
   viewBox="0 0 635.19999 123.80001"
   xml:space="preserve"
   sodipodi:docname="logo.svg"
   width="635.20001"
   height="123.8"
   inkscape:version="1.2.2 (b0a8486541, 2022-12-01)"
   xmlns:inkscape="http://www.inkscape.org/namespaces/inkscape"
   xmlns:sodipodi="http://sodipodi.sourceforge.net/DTD/sodipodi-0.dtd"
   xmlns="http://www.w3.org/2000/svg"
   xmlns:svg="http://www.w3.org/2000/svg"><defs
   id="defs15" /><sodipodi:namedview
   id="namedview13"
   pagecolor="#ffffff"
   bordercolor="#000000"
   borderopacity="0.25"
   inkscape:showpageshadow="2"
   inkscape:pageopacity="0.0"
   inkscape:pagecheckerboard="0"
   inkscape:deskcolor="#d1d1d1"
   showgrid="false"
   inkscape:zoom="1.1701005"
   inkscape:cx="354.67038"
   inkscape:cy="167.50697"
   inkscape:window-width="2048"
   inkscape:window-height="1208"
   inkscape:window-x="0"
   inkscape:window-y="0"
   inkscape:window-maximized="1"
   inkscape:current-layer="tuw-logo" />
<style
   type="text/css"
   id="style2">
	.st0{fill:#009EE3;}
	.st1{fill:#94C11C;}
	.st2{fill:#FFDD00;}
</style>
<g
   id="TEXT"
   transform="translate(-103.4,-229.3)">
</g>
<g
   id="LOGO"
   transform="translate(-103.4,-229.3)">
	<path
   class="st0"
   d="m 262.1,236.2 c -21.2,0 -39.5,11.9 -48.7,29.4 v -36.3 h -55 v 6.9 c -30.4,0 -55,24.6 -55,55 0,30.4 24.6,55 55,55 23.9,0 44.3,-15.3 51.9,-36.6 7.6,21.4 27.9,36.6 51.9,36.6 h 55 v -55 c 0,-30.3 -24.7,-55 -55.1,-55 z"
   id="path5" />
	<path
   class="st1"
   d="m 566,236.2 c -23.9,0 -44.3,15.3 -51.9,36.6 -7.6,-21.4 -27.9,-36.6 -51.9,-36.6 -16.4,0 -31.2,7.2 -41.3,18.6 -10.1,-11.4 -24.8,-18.6 -41.3,-18.6 -30.4,0 -55,24.6 -55,55 v 55 h 55 82.6 c 23.9,0 44.3,-15.3 51.9,-36.6 7.6,21.4 27.9,36.6 51.9,36.6 h 55 v -55 c 0.1,-30.3 -24.6,-55 -55,-55 z"
   id="path7" />
	<path
   class="st2"
   d="m 683.6,236.2 c -30.4,0 -55,24.6 -55,55 v 61.9 h 55 v -6.9 c 30.4,0 55,-24.6 55,-55 0,-30.4 -24.6,-55 -55,-55 z"
   id="path9" />
</g>
</svg>
