<?xml version="1.0" encoding="UTF-8" standalone="no"?>
<svg
   version="1.1"
   viewBox="0 0 256 256"
   id="svg49"
   width="256"
   height="256"
   xmlns:xlink="http://www.w3.org/1999/xlink"
   xmlns="http://www.w3.org/2000/svg"
   xmlns:svg="http://www.w3.org/2000/svg">
  <defs
     id="defs9">
    <linearGradient
       id="a"
       x1="81.830002"
       x2="118"
       y1="75.190002"
       y2="66.440002"
       gradientUnits="userSpaceOnUse">
      <stop
         stop-color="#333"
         stop-opacity="0"
         offset=".75"
         id="stop2" />
      <stop
         stop-color="#333"
         stop-opacity=".3"
         offset="1"
         id="stop4" />
    </linearGradient>
    <linearGradient
       id="c"
       x1="141.34"
       x2="175.85001"
       y1="73.029999"
       y2="-1.12"
       xlink:href="#a" />
    <linearGradient
       id="b"
       x1="81.830002"
       x2="118"
       y1="75.190002"
       y2="66.440002"
       gradientUnits="userSpaceOnUse"
       xlink:href="#a" />
  </defs>
  <g
     transform="matrix(1.2556564,0,0,1.2556564,0.00352826,0.00887106)"
     style="isolation:isolate"
     id="g47">
    <g
       data-name="Ebene 1"
       id="g45"
       transform="translate(0,18.689494)">
      <path
         d="m 121.53,9.73 -25,84.69 a 3,3 0 0 1 -2.9,2.21 H 69.29 A 3,3 0 0 1 66.37,94.31 L 51.13,36.86 h -0.27 l -27,126.74 A 3,3 0 0 1 20.92,166 H 3 A 3,3 0 0 1 0.08,162.3 L 35.22,12 a 3,3 0 0 1 2.91,-2.3 h 26.18 a 3,3 0 0 1 2.94,2.41 l 13.24,59 h 0.28 l 16,-57.35 a 5.31,5.31 0 0 1 5.15,-4 z"
         fill="#007934"
         id="path11" />
      <g
         style="mix-blend-mode:multiply"
         id="g15">
        <path
           d="m 121.53,9.73 -25,84.69 a 3,3 0 0 1 -2.9,2.21 H 69.29 A 3,3 0 0 1 66.37,94.31 L 51.13,36.86 h -0.27 l -27,126.74 A 3,3 0 0 1 20.92,166 H 3 A 3,3 0 0 1 0.08,162.3 L 35.22,12 a 3,3 0 0 1 2.91,-2.3 h 26.18 a 3,3 0 0 1 2.94,2.41 l 13.24,59 h 0.28 l 16,-57.35 a 5.31,5.31 0 0 1 5.15,-4 z"
           fill="url(#b)"
           id="path13"
           style="fill:url(#b)" />
      </g>
      <path
         d="M 192.16,0 H 179 a 14,14 0 0 0 -13.65,17.26 l 12.12,49.8 c 3.62,14.14 -2.25,17.73 -10.79,17.73 -8.81,0 -17.69,-3.64 -21.16,-17.19 -4.6,-18 -9,-35.3 -13.43,-53.8 A 5.28,5.28 0 0 0 126.94,9.73 H 102 a 5.43,5.43 0 0 1 5.28,4.16 c 4.31,17.83 8.38,34.45 13.59,55.63 6.66,27.09 27.08,37.73 50.67,37.73 22.65,0 36.59,-12.89 30.61,-37.31 L 189.34,17.28 C 186.82,7 196.38,0 199.06,2.52 A 9.7,9.7 0 0 0 192.16,0"
         fill="#34b233"
         id="path17" />
      <path
         d="M 192.16,0 H 179 a 14,14 0 0 0 -13.65,17.26 l 12.12,49.8 c 3.62,14.14 -2.25,17.73 -10.79,17.73 -8.81,0 -17.69,-3.64 -21.16,-17.19 -4.6,-18 -9,-35.3 -13.43,-53.8 A 5.28,5.28 0 0 0 126.94,9.73 H 102 a 5.43,5.43 0 0 1 5.28,4.16 c 4.31,17.83 8.38,34.45 13.59,55.63 6.66,27.09 27.08,37.73 50.67,37.73 22.65,0 36.59,-12.89 30.61,-37.31 L 189.34,17.28 C 186.82,7 196.38,0 199.06,2.52 A 9.7,9.7 0 0 0 192.16,0"
         fill="url(#c)"
         style="mix-blend-mode:multiply;fill:url(#c)"
         id="path19" />
      <path
         d="M 192.16,0 H 179 a 14,14 0 0 1 14,14 l 2.64,-8.17 6.66,2.74 C 202.3,8.57 201,0 192.16,0 Z"
         fill="#ff7f45"
         id="path21" />
      <g
         fill="#333333"
         id="g43">
        <path
           d="m 66.9,117.26 q 0.66,1.14 1.47,2.79 c 0.54,1.1 1.09,2.25 1.65,3.46 0.56,1.21 1.11,2.45 1.66,3.7 0.55,1.25 1.06,2.4 1.52,3.46 l 1.5,-3.46 c 0.54,-1.25 1.09,-2.48 1.65,-3.7 0.56,-1.22 1.11,-2.36 1.65,-3.46 0.54,-1.1 1,-2 1.47,-2.79 h 3.4 c 0.19,1.52 0.36,3.13 0.52,4.84 0.16,1.71 0.31,3.47 0.45,5.25 0.14,1.78 0.25,3.6 0.36,5.41 0.11,1.81 0.21,3.57 0.29,5.29 h -3.72 q -0.12,-3.63 -0.29,-7.47 -0.17,-3.84 -0.5,-7.44 l -0.78,1.65 c -0.3,0.64 -0.62,1.34 -1,2.09 -0.38,0.75 -0.69,1.52 -1,2.32 l -1,2.32 c -0.33,0.75 -0.63,1.46 -0.91,2.11 l -0.72,1.66 H 71.73 L 71,133.61 c -0.28,-0.66 -0.59,-1.36 -0.92,-2.11 l -1,-2.33 c -0.35,-0.8 -0.69,-1.57 -1,-2.31 l -1,-2.09 c -0.3,-0.64 -0.56,-1.19 -0.78,-1.63 -0.23,2.4 -0.39,4.88 -0.51,7.44 -0.12,2.56 -0.2,5 -0.29,7.47 h -3.72 c 0.09,-1.72 0.18,-3.5 0.29,-5.34 0.11,-1.84 0.24,-3.66 0.37,-5.48 0.13,-1.82 0.28,-3.56 0.44,-5.26 0.16,-1.7 0.34,-3.27 0.52,-4.71 z"
           id="path23" />
        <path
           d="m 87.82,130.28 a 9.86,9.86 0 0 1 0.62,-3.63 7.74,7.74 0 0 1 1.63,-2.6 6.74,6.74 0 0 1 2.34,-1.55 7.25,7.25 0 0 1 2.7,-0.53 6.47,6.47 0 0 1 5.06,2 q 1.81,2 1.81,6 v 1.35 H 91.57 a 4.17,4.17 0 0 0 1.34,2.93 5.11,5.11 0 0 0 3.43,1 11.34,11.34 0 0 0 2.42,-0.24 9.87,9.87 0 0 0 1.72,-0.51 l 0.48,3 a 7.09,7.09 0 0 1 -0.82,0.32 c -0.35,0.1 -0.75,0.21 -1.2,0.3 -0.45,0.09 -0.94,0.16 -1.46,0.22 a 13.86,13.86 0 0 1 -1.59,0.09 9.83,9.83 0 0 1 -3.6,-0.61 6.82,6.82 0 0 1 -2.52,-1.71 7.17,7.17 0 0 1 -1.47,-2.58 10.57,10.57 0 0 1 -0.48,-3.25 z m 10.53,-1.62 a 4.8,4.8 0 0 0 -0.21,-1.43 3.52,3.52 0 0 0 -0.61,-1.17 2.88,2.88 0 0 0 -1,-0.77 3,3 0 0 0 -1.4,-0.29 3.25,3.25 0 0 0 -1.47,0.31 3.34,3.34 0 0 0 -1.06,0.83 3.78,3.78 0 0 0 -0.68,1.17 6.34,6.34 0 0 0 -0.33,1.35 z"
           id="path25" />
        <path
           d="m 119.08,137.57 a 21.4,21.4 0 0 1 -2.71,0.6 21.13,21.13 0 0 1 -3.44,0.27 9.15,9.15 0 0 1 -3.33,-0.57 6.8,6.8 0 0 1 -2.5,-1.64 7.07,7.07 0 0 1 -1.59,-2.57 9.87,9.87 0 0 1 -0.56,-3.41 11.39,11.39 0 0 1 0.47,-3.37 7.4,7.4 0 0 1 1.36,-2.6 6.07,6.07 0 0 1 2.19,-1.66 7,7 0 0 1 3,-0.59 6.79,6.79 0 0 1 2,0.27 9,9 0 0 1 1.5,0.6 v -7.53 l 3.63,-0.6 z m -10.41,-7.41 a 5.69,5.69 0 0 0 1.14,3.76 3.86,3.86 0 0 0 3.15,1.37 12.49,12.49 0 0 0 1.49,-0.08 7.79,7.79 0 0 0 1,-0.16 v -9 a 6,6 0 0 0 -1.27,-0.62 5.27,5.27 0 0 0 -1.7,-0.28 3.24,3.24 0 0 0 -2.89,1.35 6.44,6.44 0 0 0 -0.92,3.66 z"
           id="path27" />
        <path
           d="m 135.88,138.5 a 9.6,9.6 0 0 1 -3.66,-0.62 6.61,6.61 0 0 1 -2.53,-1.72 7,7 0 0 1 -1.49,-2.61 10.78,10.78 0 0 1 -0.48,-3.3 v -13 h 3.81 v 12.63 a 8.09,8.09 0 0 0 0.32,2.41 4.16,4.16 0 0 0 0.9,1.64 3.59,3.59 0 0 0 1.38,0.93 5,5 0 0 0 1.78,0.3 5.15,5.15 0 0 0 1.8,-0.3 3.59,3.59 0 0 0 1.4,-0.93 4.16,4.16 0 0 0 0.9,-1.64 8.11,8.11 0 0 0 0.31,-2.41 v -12.62 h 3.81 v 13 a 10.48,10.48 0 0 1 -0.49,3.3 7.2,7.2 0 0 1 -1.5,2.61 6.61,6.61 0 0 1 -2.57,1.72 9.83,9.83 0 0 1 -3.69,0.61 z"
           id="path29" />
        <path
           d="m 148.78,122.87 a 24.32,24.32 0 0 1 2.73,-0.57 23.54,23.54 0 0 1 3.72,-0.27 8.77,8.77 0 0 1 3.21,0.52 5.12,5.12 0 0 1 2.06,1.45 5.74,5.74 0 0 1 1.08,2.28 12.85,12.85 0 0 1 0.31,2.93 v 8.82 h -3.63 v -8.23 a 11.9,11.9 0 0 0 -0.16,-2.14 3.92,3.92 0 0 0 -0.54,-1.45 2.14,2.14 0 0 0 -1,-0.8 4.32,4.32 0 0 0 -1.58,-0.26 12.1,12.1 0 0 0 -1.44,0.09 l -1.11,0.15 v 12.66 h -3.63 z"
           id="path31" />
        <path
           d="m 170.38,117.77 a 2.08,2.08 0 0 1 -0.66,1.62 2.24,2.24 0 0 1 -1.56,0.6 2.28,2.28 0 0 1 -1.59,-0.6 2.08,2.08 0 0 1 -0.66,-1.62 2.12,2.12 0 0 1 0.66,-1.65 2.28,2.28 0 0 1 1.59,-0.6 2.24,2.24 0 0 1 1.56,0.6 2.12,2.12 0 0 1 0.66,1.65 z M 170,138.05 h -3.63 V 122.36 H 170 Z"
           id="path33" />
        <path
           d="m 72.07,148.11 a 6.1,6.1 0 0 0 -4.9,2 8.32,8.32 0 0 0 -1.7,5.54 10.91,10.91 0 0 0 0.41,3.07 6.8,6.8 0 0 0 1.2,2.39 5.36,5.36 0 0 0 2,1.54 6.46,6.46 0 0 0 2.77,0.56 c 0.66,0 1.23,0 1.71,-0.07 a 6.87,6.87 0 0 0 1.14,-0.2 v -7.47 h 3.78 v 10 a 17.51,17.51 0 0 1 -2.64,0.66 22.76,22.76 0 0 1 -4.29,0.36 11.3,11.3 0 0 1 -4.11,-0.72 8.51,8.51 0 0 1 -3.16,-2.1 9.55,9.55 0 0 1 -2,-3.39 13.66,13.66 0 0 1 -0.72,-4.62 12.49,12.49 0 0 1 0.8,-4.62 10,10 0 0 1 2.17,-3.4 9,9 0 0 1 3.24,-2.12 10.87,10.87 0 0 1 4,-0.72 15.23,15.23 0 0 1 2.57,0.19 19.64,19.64 0 0 1 1.93,0.44 7.9,7.9 0 0 1 1.34,0.51 l 0.73,0.39 -1.14,3.09 a 9.54,9.54 0 0 0 -2.23,-0.92 10.77,10.77 0 0 0 -2.9,-0.39 z"
           id="path35" />
        <path
           d="m 91.6,153.63 a 11.25,11.25 0 0 0 -1.24,-0.32 10,10 0 0 0 -1.85,-0.16 7.24,7.24 0 0 0 -1.27,0.12 7.8,7.8 0 0 0 -0.95,0.21 v 12.57 h -3.63 v -14.94 a 18.66,18.66 0 0 1 2.63,-0.73 16.3,16.3 0 0 1 3.49,-0.35 c 0.24,0 0.52,0 0.84,0.05 0.32,0.05 0.64,0.07 1,0.11 0.36,0.04 0.63,0.11 0.93,0.19 0.3,0.08 0.54,0.13 0.72,0.19 z"
           id="path37" />
        <path
           d="m 100,150 a 8.88,8.88 0 0 1 3,0.45 4.86,4.86 0 0 1 2,1.26 4.76,4.76 0 0 1 1,2 9.71,9.71 0 0 1 0.31,2.54 v 9.51 c -0.56,0.12 -1.4,0.27 -2.53,0.44 a 26,26 0 0 1 -3.83,0.25 11.48,11.48 0 0 1 -2.58,-0.27 5.4,5.4 0 0 1 -2,-0.87 4.11,4.11 0 0 1 -1.29,-1.56 5.41,5.41 0 0 1 -0.47,-2.37 4.58,4.58 0 0 1 0.53,-2.28 4.4,4.4 0 0 1 1.42,-1.52 6.41,6.41 0 0 1 2.09,-0.84 12.39,12.39 0 0 1 2.47,-0.25 11.22,11.22 0 0 1 1.26,0.08 11.69,11.69 0 0 1 1.41,0.25 v -0.6 a 4.7,4.7 0 0 0 -0.15,-1.2 2.35,2.35 0 0 0 -1.51,-1.68 4.31,4.31 0 0 0 -1.55,-0.24 13.71,13.71 0 0 0 -2.31,0.18 10.16,10.16 0 0 0 -1.71,0.42 l -0.45,-2.94 a 14.29,14.29 0 0 1 2,-0.48 A 15.76,15.76 0 0 1 100,150 Z m 0.3,13.53 a 13.51,13.51 0 0 0 2.55,-0.18 v -4 a 7.06,7.06 0 0 0 -0.87,-0.18 8.11,8.11 0 0 0 -1.26,-0.09 8.31,8.31 0 0 0 -1.21,0.09 3.79,3.79 0 0 0 -1.11,0.33 2,2 0 0 0 -0.8,0.68 1.87,1.87 0 0 0 -0.3,1.09 1.94,1.94 0 0 0 0.81,1.79 4.18,4.18 0 0 0 2.16,0.44 z"
           id="path39" />
        <path
           d="m 121.75,152.91 c -0.4,0.42 -0.92,1 -1.57,1.77 -0.65,0.77 -1.35,1.61 -2.09,2.53 -0.74,0.92 -1.48,1.91 -2.23,2.92 -0.75,1.01 -1.43,2 -2,2.89 h 8.1 v 3 h -12.51 v -2.22 a 28.52,28.52 0 0 1 1.65,-2.61 c 0.66,-0.94 1.34,-1.89 2,-2.84 0.66,-0.95 1.4,-1.85 2.09,-2.71 0.69,-0.86 1.3,-1.61 1.84,-2.25 h -7.23 v -3 h 11.91 z"
           id="path41" />
      </g>
    </g>
  </g>
</svg>
