<?xml version="1.0" encoding="UTF-8" standalone="no"?>
<!-- Created with Inkscape (http://www.inkscape.org/) -->

<svg
   version="1.0"
   width="256"
   height="256"
   id="svg2"
   xmlns="http://www.w3.org/2000/svg"
   xmlns:svg="http://www.w3.org/2000/svg">
  <defs
     id="defs4" />
  <g
     id="g580"
     transform="matrix(0.33141815,0,0,0.33141815,0.44060159,80.360007)">
    <path
       d="m 567.32368,280.17299 c -3.75097,1.97766 -7.64513,3.46091 -11.68251,4.44973 -4.03749,0.98883 -8.20516,1.48324 -12.50303,1.48324 -9.71592,0 -17.41309,-2.94529 -23.09153,-8.83588 -5.67847,-5.89057 -8.51769,-13.87888 -8.51769,-23.96494 0,-10.19901 2.89132,-18.22263 8.67397,-24.07089 5.78263,-5.84815 13.70121,-8.77225 23.75575,-8.77231 3.88111,6e-5 7.59946,0.39559 11.15505,1.18659 3.55549,0.79112 6.90917,1.96359 10.06103,3.5174 v 13.0949 c -3.25605,-2.00586 -6.49251,-3.50323 -9.70939,-4.4921 -3.21696,-0.98877 -6.4404,-1.48319 -9.67031,-1.48324 -5.99106,5e-5 -10.60805,1.81525 -13.851,5.44562 -3.24299,3.63045 -4.86448,8.82179 -4.86446,15.57403 -2e-5,6.6958 1.56286,11.86595 4.68864,15.51046 3.12573,3.64455 7.5669,5.46682 13.32353,5.46681 1.56284,10e-6 3.01501,-0.10594 4.35653,-0.31784 1.34142,-0.21188 2.54614,-0.54384 3.61415,-0.99589 v -12.28971 h -9.1819 v -10.93361 h 23.44317 z m 45.08904,-29.83433 c -1.22429,-0.62152 -2.44204,-1.08061 -3.65323,-1.3773 -1.21127,-0.29661 -2.429,-0.44494 -3.65323,-0.44497 -3.59464,3e-5 -6.36224,1.25019 -8.30279,3.75048 -1.94059,2.50035 -2.91088,6.08131 -2.91086,10.7429 v 21.86722 h -13.98776 v -47.46372 h 13.98776 v 7.79761 c 1.79729,-3.1077 3.86159,-5.37494 6.19291,-6.80172 2.33126,-1.4267 5.1249,-2.14006 8.38093,-2.14011 0.46883,5e-5 0.97677,0.0212 1.52381,0.0636 0.54696,0.0424 1.34144,0.13424 2.38338,0.27546 z m 26.64708,13.17965 c -2.91739,3e-5 -5.11194,0.53681 -6.58362,1.61038 -1.47173,1.0736 -2.20759,2.65573 -2.20757,4.74637 -2e-5,1.92117 0.59257,3.42559 1.77778,4.51329 1.18516,1.08772 2.83269,1.63158 4.9426,1.63157 2.63081,10e-6 4.84489,-1.02413 6.64224,-3.07243 1.79727,-2.04827 2.69592,-4.61216 2.69595,-7.69166 v -1.73752 z m 21.37236,-5.72107 v 27.07975 h -14.10498 v -7.0348 c -1.87548,2.88173 -3.98537,4.97946 -6.32965,6.29318 -2.34434,1.31372 -5.1966,1.97059 -8.55677,1.97059 -4.53236,0 -8.21163,-1.4338 -11.03782,-4.3014 -2.82621,-2.86759 -4.23931,-6.58982 -4.23931,-11.16669 0,-5.56566 1.76475,-9.6481 5.29425,-12.24734 3.52949,-2.59917 9.07119,-3.89877 16.62512,-3.8988 h 8.24418 v -1.18659 c -3e-5,-2.4014 -0.87264,-4.1601 -2.61782,-5.2761 -1.74524,-1.11593 -4.46725,-1.67391 -8.16604,-1.67395 -2.99553,4e-5 -5.78266,0.32494 -8.3614,0.9747 -2.57876,0.64984 -4.97516,1.62454 -7.18924,2.92411 v -11.56929 c 2.99552,-0.79101 6.00405,-1.39137 9.02563,-1.80107 3.02155,-0.40961 6.0431,-0.61444 9.06469,-0.61449 7.89251,5e-5 13.5905,1.68812 17.09398,5.06421 3.50341,3.37618 5.25514,8.86417 5.25518,16.46398 z m 10.94016,-20.38397 h 38.17329 v 10.59457 l -23.05245,26.0203 h 23.05245 v 10.84885 h -39.15009 v -10.59458 l 23.05245,-26.02029 h -22.07565 z"
       id="text2424"
       style="font-style:normal;font-variant:normal;font-weight:bold;font-stretch:normal;font-size:110.524px;line-height:100%;font-family:'DejaVu Sans';-inkscape-font-specification:'DejaVu Sans Bold';text-align:start;writing-mode:lr-tb;text-anchor:start;fill:#000000;fill-opacity:1;stroke:none;stroke-width:1px;stroke-linecap:butt;stroke-linejoin:miter;stroke-opacity:1" />
    <path
       d="M 510.78638,212.09009 V 98.294075 h -41.17472 v -23.17029 h 110.27255 v 23.17029 H 538.80413 V 212.09009 Z m 87.0822,-136.966305 h 28.01773 v 74.182295 c -4e-5,11.77206 0.34703,19.40205 1.0412,22.89001 1.19892,5.60574 4.05433,10.10588 8.56624,13.50042 4.51181,3.3946 10.68013,5.09188 18.50497,5.09186 7.9509,2e-5 13.94568,-1.60383 17.98436,-4.81157 4.0385,-3.20768 6.46796,-7.14725 7.2884,-11.81872 0.82024,-4.67138 1.23041,-12.42595 1.2305,-23.26371 V 75.123785 h 28.01776 v 71.940005 c -1.3e-4,16.44348 -0.75736,28.05976 -2.27171,34.84887 -1.5146,6.78917 -4.3069,12.51944 -8.37693,17.19086 -4.07026,4.67143 -9.51289,8.39301 -16.32791,11.16471 -6.81522,2.77172 -15.71273,4.15757 -26.69258,4.15758 -13.2517,-1e-5 -23.30085,-1.51044 -30.14748,-4.53129 -6.84671,-3.02085 -12.25778,-6.94485 -16.23325,-11.772 -3.97551,-4.82712 -6.59429,-9.88784 -7.85633,-15.18215 -1.83,-7.84796 -2.745,-19.4331 -2.74497,-34.75543 z"
       id="text2428"
       style="font-style:normal;font-variant:normal;font-weight:bold;font-stretch:normal;font-size:255.425px;line-height:100%;font-family:Arial;-inkscape-font-specification:'Arial Bold';text-align:start;writing-mode:lr-tb;text-anchor:start;fill:#000000;fill-opacity:1;stroke:none;stroke-width:1px;stroke-linecap:butt;stroke-linejoin:miter;stroke-opacity:1" />
    <path
       d="M 241.32124,1.3857949 V 72.592685 H 156.18871 V 143.82314 H 141.90963 V 72.592685 H 1.0038553 V 213.49845 H 72.234313 v 71.23046 H 213.14008 v -71.23046 h 83.95439 v -71.20689 h 14.30264 v 71.20689 H 452.30288 V 72.592685 H 382.227 V 1.3857949 Z M 720.02384,236.3544 v 48.75151 h 48.7515 V 236.3544 Z"
       id="rect2432"
       style="opacity:0.97;fill:#ee2556;fill-opacity:1;fill-rule:nonzero;stroke:none;stroke-width:1.8;stroke-linecap:round;stroke-linejoin:round;stroke-miterlimit:4;stroke-dasharray:none;stroke-opacity:1" />
  </g>
</svg>
